# xmcd CD database file generated by Grip 3.3.1
# 
# Track frame offsets:
#       150
#       19185
#       41795
#       57795
#       75585
#       94342
#       109182
#       123067
#       141412
#       158100
# 
# Disc length: 2407 seconds
# 
# Revision: 2
# Processed by: cddbd v1.5.2PL0 Copyright (c) Steve Scherf et al.
# Submitted via: Grip 3.3.1
# 
DISCID=7f09650a
DTITLE=Ronnie Arduini - The Pure Lounge collection 08 - Rendez - Vous
DYEAR=2006
DGENRE=Other
TTITLE0=Prelude To A Dream
TTITLE1=Emerald Vision
TTITLE2=Skylight
TTITLE3=Eternal Quest
TTITLE4=Shades Of Amber
TTITLE5=Jasmin's Garden
TTITLE6=Echoes Of Eden
TTITLE7=Crest Of A Wave
TTITLE8=Sandstone
TTITLE9=The Aftermath
EXTD=YEAR: 2006
EXTT0=
EXTT1=
EXTT2=
EXTT3=
EXTT4=
EXTT5=
EXTT6=
EXTT7=
EXTT8=
EXTT9=
PLAYORDER=
